<?xml version="1.0" encoding="utf-8"?>
<!-- Generator: Adobe Illustrator 17.0.0, SVG Export Plug-In . SVG Version: 6.00 Build 0)  -->
<!DOCTYPE svg PUBLIC "-//W3C//DTD SVG 1.1//EN" "http://www.w3.org/Graphics/SVG/1.1/DTD/svg11.dtd">
<svg version="1.1" id="Layer_1" xmlns="http://www.w3.org/2000/svg" xmlns:xlink="http://www.w3.org/1999/xlink" x="0px" y="0px"
	 width="300px" height="187.5px" viewBox="330 206.25 300 187.5" enable-background="new 330 206.25 300 187.5"
	 xml:space="preserve">
<g>
	<path fill="#6200EE" d="M347.335,311.768v-13.953c0-3.436-1.796-6.554-5.338-6.554c-3.488,0-5.549,3.118-5.549,6.554v13.953H330
		v-26.109h5.972l0.475,3.171c1.374-2.642,4.387-3.594,6.871-3.594c3.118,0,6.236,1.269,7.716,4.862
		c2.325-3.7,5.338-4.757,8.72-4.757c7.399,0,11.047,4.545,11.047,12.367v14.059h-6.448v-14.059c0-3.436-1.427-6.342-4.915-6.342
		c-3.488,0-5.656,3.012-5.656,6.448v13.953L347.335,311.768L347.335,311.768z"/>
	<path fill="#6200EE" d="M398.016,285.712h6.183v26.056h-6.077l-0.317-3.805c-1.48,3.065-5.549,4.545-8.456,4.598
		c-7.716,0.053-13.424-4.703-13.424-13.847c0-8.985,5.972-13.689,13.583-13.636c3.488,0,6.817,1.639,8.297,4.228L398.016,285.712z
		 M382.372,298.714c0,4.968,3.436,7.928,7.717,7.928c10.147,0,10.147-15.803,0-15.803
		C385.807,290.839,382.372,293.746,382.372,298.714z"/>
	<path fill="#6200EE" d="M430.094,283.07l4.757,3.594l-2.907,3.7c2.008,2.272,2.748,4.862,2.748,7.716
		c0,3.224-1.215,7.769-5.497,9.725c4.334,2.167,5.391,5.285,5.391,8.615c0,7.188-5.497,11.627-13.054,11.627
		s-13.213-4.598-13.213-11.627h6.395c0,3.383,3.118,5.602,6.818,5.602c3.7,0,6.606-2.008,6.606-5.602s-3.383-5.233-6.606-5.233
		c-8.139,0-13.213-4.968-13.213-13.107s5.919-13.213,13.213-13.213c2.061,0,4.175,0.265,5.972,1.48L430.094,283.07z M414.713,298.08
		c0,4.545,3.065,7.24,6.818,7.24c3.7,0,6.765-2.748,6.765-7.24c0-4.493-3.066-7.346-6.765-7.346
		C417.779,290.734,414.713,293.535,414.713,298.08z"/>
	<path fill="#6200EE" d="M445.84,278.366c0,5.021-7.611,5.021-7.611,0S445.84,273.345,445.84,278.366z M438.811,285.607v26.162
		h6.448v-26.162H438.811z"/>
	<path fill="#6200EE" d="M473.427,308.439c-3.013,2.96-6.184,4.122-10.042,4.122c-7.558,0-13.847-4.545-13.847-13.795
		c0-9.249,6.289-13.794,13.847-13.794c3.7,0,6.554,1.057,9.408,3.858l-4.069,4.282c-1.533-1.374-3.436-2.062-5.233-2.062
		c-4.334,0-7.505,3.171-7.505,7.716c0,4.968,3.383,7.611,7.399,7.611c2.062,0,4.123-0.581,5.708-2.167L473.427,308.439z"/>
	<path fill="#6200EE" d="M482.726,274.825v14.428c1.532-2.695,5.814-4.175,8.562-4.175c7.611,0,13.265,4.651,13.265,13.636
		c0,8.562-5.761,13.636-13.424,13.636c-3.171,0-6.395-1.057-8.404-4.175l-0.423,3.594h-6.025v-36.943H482.726L482.726,274.825z
		 M483.149,298.714c0,4.703,3.488,7.663,7.558,7.663c4.122,0,7.399-3.118,7.399-7.663c0-4.704-3.277-7.611-7.399-7.611
		C486.637,291.103,483.149,294.169,483.149,298.714z"/>
	<path fill="#6200EE" d="M568.381,285.712h6.183v26.056h-6.077l-0.317-3.805c-1.48,3.065-5.55,4.545-8.456,4.598
		c-7.716,0.053-13.424-4.703-13.424-13.847c0-8.985,5.972-13.689,13.582-13.636c3.488,0,6.818,1.639,8.298,4.228L568.381,285.712z
		 M552.737,298.714c0,4.968,3.436,7.928,7.716,7.928c10.148,0,10.148-15.803,0-15.803
		C556.172,290.839,552.737,293.746,552.737,298.714z"/>
	<path fill="#6200EE" d="M585.977,285.712l0.476,3.013c2.008-3.224,4.703-3.7,7.346-3.7c2.695,0,5.285,1.057,6.712,2.485
		l-2.906,5.602c-1.321-1.11-2.537-1.691-4.651-1.691c-3.383,0-6.5,1.797-6.5,6.607v13.742h-6.448v-26.056H585.977z"/>
	<path fill="#6200EE" d="M630,274.825v36.943h-6.025l-0.423-3.594c-2.008,3.118-5.233,4.175-8.404,4.175
		c-7.663,0-13.425-5.074-13.425-13.636c0-8.985,5.656-13.636,13.266-13.636c2.748,0,7.029,1.48,8.562,4.175v-14.428L630,274.825
		L630,274.825z M608.173,298.714c0,4.545,3.277,7.663,7.399,7.663c4.069,0,7.558-2.96,7.558-7.663c0-4.546-3.488-7.611-7.558-7.611
		C611.45,291.103,608.173,294.01,608.173,298.714z"/>
	<g>
		<g>
			<path fill="#FEC52E" d="M544.933,296.65l-19.202-19.202l-19.202,19.202l19.202,19.202l9.543-9.543L544.933,296.65z
				 M517.957,297.836c-0.662-0.662-0.662-1.733,0-2.395l0.495-0.496v-0.002l2.798-2.797l2.798-2.799h0.002l0.495-0.494
				c0.662-0.662,1.734-0.662,2.395,0l6.587,6.587c0.662,0.662,0.662,1.733,0,2.395l-0.001,0.001l-6.586,6.586l-0.002,0.002
				c-0.662,0.662-1.733,0.662-2.395,0L517.957,297.836z"/>
		</g>
		<g>
			
				<rect x="533.058" y="273.56" transform="matrix(0.7071 -0.7071 0.7071 0.7071 -38.9166 460.9384)" fill="#FEC52E" width="7.772" height="7.771"/>
		</g>
	</g>
</g>
</svg>
